# xmcd
# 
# Track frame offsets:
#     150
#     23581
#     49831
#     69375
#     98668
#     120856
#     156825
#     176581
#     196606
#     234825
#     251806
#     266950
#     289577
# 
# Disc length: 4188
# 
# Revision: 1
# Processed by: cddbd v1.5.2PL0 Copyright (c) Steve Scherf et al.
# Submitted via: BonkEnc v1.0.8
# 
DISCID=a4105a0d
DTITLE=Various Artist - Around The Blues
DYEAR=2002
DGENRE=Blues
TTITLE0=Luc Bertin - Reconsider Baby
TTITLE1=Francis Cabrel - Crossroad
TTITLE2=Michael Jones - Rollin' and Tumblin'
TTITLE3=Denys Lable - Worries Life Blues
TTITLE4=Patrick Verbeke - That's Allright
TTITLE5=Michael Jones - Third Degree
TTITLE6=Luc Bertin - Suzi Q
TTITLE7=Francis Cabrel - Ya Ya
TTITLE8=Manu Galvin - Stormy Monday
TTITLE9=Slim Batteux - Unchain My Heart
TTITLE10=Patrick Verbeke - Key To The Highway
TTITLE11=Francis Cabrel - Sarbacane
TTITLE12=Michael Jones - Cocaine
EXTD=
EXTT0=
EXTT1=
EXTT2=
EXTT3=
EXTT4=
EXTT5=
EXTT6=
EXTT7=
EXTT8=
EXTT9=
EXTT10=
EXTT11=
EXTT12=
PLAYORDER=
